#usda 1.0
(
    defaultPrim = "DeformableSphere"
    metersPerUnit = 1
    upAxis = "Z"
)

def Xform "DeformableSphere"
{
    def TetMesh "sim_mesh"
    {
        point3f[] points = [(-0.06, 0, 0), (-0.057716303, 0, -0.016395992), (-0.057716303, 0, 0.016395992), (-0.05706339, -0.015771933, -0.009747591), (-0.05706339, -0.015771933, 0.009747591), (-0.05706339, 0.015771933, -0.009747591), (-0.05706339, 0.015771933, 0.009747591), (-0.051760107, -0.015593515, -0.026033314), (-0.051760107, -0.015593515, 0.026033314), (-0.051760107, 0.015593515, -0.026033314), (-0.051760107, 0.015593515, 0.026033314), (-0.051039048, -0.031543866, 0), (-0.051039048, 0, -0.031543866), (-0.051039048, 0, 0.031543866), (-0.051039048, 0.031543866, 0), (-0.04854102, -0.03, -0.01854102), (-0.04854102, -0.03, 0.01854102), (-0.04854102, 0.03, -0.01854102), (-0.04854102, 0.03, 0.01854102), (-0.042122785, -0.009637322, -0.04162683), (-0.042122785, -0.009637322, 0.04162683), (-0.042122785, 0.009637322, -0.04162683), (-0.042122785, 0.009637322, 0.04162683), (-0.04162683, -0.042122785, -0.009637322), (-0.04162683, -0.042122785, 0.009637322), (-0.04162683, 0.042122785, -0.009637322), (-0.04162683, 0.042122785, 0.009637322), (-0.041291457, -0.025519524, -0.035267115), (-0.041291457, -0.025519524, 0.035267115), (-0.041291457, 0.025519524, -0.035267115), (-0.041291457, 0.025519524, 0.035267115), (-0.035267115, -0.041291457, -0.025519524), (-0.035267115, -0.041291457, 0.025519524), (-0.035267115, 0.041291457, -0.025519524), (-0.035267115, 0.041291457, 0.025519524), (-0.031543866, -0.051039048, 0), (-0.031543866, 0, -0.051039048), (-0.031543866, 0, 0.051039048), (-0.031543866, 0.051039048, 0), (-0.03, -0.01854102, -0.04854102), (-0.03, -0.01854102, 0.04854102), (-0.03, 0.01854102, -0.04854102), (-0.03, 0.01854102, 0.04854102), (-0.026033314, -0.051760107, -0.015593515), (-0.026033314, -0.051760107, 0.015593515), (-0.026033314, 0.051760107, -0.015593515), (-0.026033314, 0.051760107, 0.015593515), (-0.025519524, -0.035267115, -0.041291457), (-0.025519524, -0.035267115, 0.041291457), (-0.025519524, 0.035267115, -0.041291457), (-0.025519524, 0.035267115, 0.041291457), (-0.01854102, -0.04854102, -0.03), (-0.01854102, -0.04854102, 0.03), (-0.01854102, 0.04854102, -0.03), (-0.01854102, 0.04854102, 0.03), (-0.016395992, -0.057716303, 0), (-0.016395992, 0.057716303, 0), (-0.015771933, -0.009747591, -0.05706339), (-0.015771933, -0.009747591, 0.05706339), (-0.015771933, 0.009747591, -0.05706339), (-0.015771933, 0.009747591, 0.05706339), (-0.015593515, -0.026033314, -0.051760107), (-0.015593515, -0.026033314, 0.051760107), (-0.015593515, 0.026033314, -0.051760107), (-0.015593515, 0.026033314, 0.051760107), (-0.009747591, -0.05706339, -0.015771933), (-0.009747591, -0.05706339, 0.015771933), (-0.009747591, 0.05706339, -0.015771933), (-0.009747591, 0.05706339, 0.015771933), (-0.009637322, -0.04162683, -0.042122785), (-0.009637322, -0.04162683, 0.042122785), (-0.009637322, 0.04162683, -0.042122785), (-0.009637322, 0.04162683, 0.042122785), (0, -0.06, 0), (0, -0.051039048, -0.031543866), (0, -0.051039048, 0.031543866), (0, -0.031543866, -0.051039048), (0, -0.031543866, 0.051039048), (0, -0.016395992, -0.057716303), (0, -0.016395992, 0.057716303), (0, 0, -0.06), (0, 0, 0.06), (0, 0.016395992, -0.057716303), (0, 0.016395992, 0.057716303), (0, 0.031543866, -0.051039048), (0, 0.031543866, 0.051039048), (0, 0.051039048, -0.031543866), (0, 0.051039048, 0.031543866), (0, 0.06, 0), (0.009637322, -0.04162683, -0.042122785), (0.009637322, -0.04162683, 0.042122785), (0.009637322, 0.04162683, -0.042122785), (0.009637322, 0.04162683, 0.042122785), (0.009747591, -0.05706339, -0.015771933), (0.009747591, -0.05706339, 0.015771933), (0.009747591, 0.05706339, -0.015771933), (0.009747591, 0.05706339, 0.015771933), (0.015593515, -0.026033314, -0.051760107), (0.015593515, -0.026033314, 0.051760107), (0.015593515, 0.026033314, -0.051760107), (0.015593515, 0.026033314, 0.051760107), (0.015771933, -0.009747591, -0.05706339), (0.015771933, -0.009747591, 0.05706339), (0.015771933, 0.009747591, -0.05706339), (0.015771933, 0.009747591, 0.05706339), (0.016395992, -0.057716303, 0), (0.016395992, 0.057716303, 0), (0.01854102, -0.04854102, -0.03), (0.01854102, -0.04854102, 0.03), (0.01854102, 0.04854102, -0.03), (0.01854102, 0.04854102, 0.03), (0.025519524, -0.035267115, -0.041291457), (0.025519524, -0.035267115, 0.041291457), (0.025519524, 0.035267115, -0.041291457), (0.025519524, 0.035267115, 0.041291457), (0.026033314, -0.051760107, -0.015593515), (0.026033314, -0.051760107, 0.015593515), (0.026033314, 0.051760107, -0.015593515), (0.026033314, 0.051760107, 0.015593515), (0.03, -0.01854102, -0.04854102), (0.03, -0.01854102, 0.04854102), (0.03, 0.01854102, -0.04854102), (0.03, 0.01854102, 0.04854102), (0.031543866, -0.051039048, 0), (0.031543866, 0, -0.051039048), (0.031543866, 0, 0.051039048), (0.031543866, 0.051039048, 0), (0.035267115, -0.041291457, -0.025519524), (0.035267115, -0.041291457, 0.025519524), (0.035267115, 0.041291457, -0.025519524), (0.035267115, 0.041291457, 0.025519524), (0.041291457, -0.025519524, -0.035267115), (0.041291457, -0.025519524, 0.035267115), (0.041291457, 0.025519524, -0.035267115), (0.041291457, 0.025519524, 0.035267115), (0.04162683, -0.042122785, -0.009637322), (0.04162683, -0.042122785, 0.009637322), (0.04162683, 0.042122785, -0.009637322), (0.04162683, 0.042122785, 0.009637322), (0.042122785, -0.009637322, -0.04162683), (0.042122785, -0.009637322, 0.04162683), (0.042122785, 0.009637322, -0.04162683), (0.042122785, 0.009637322, 0.04162683), (0.04854102, -0.03, -0.01854102), (0.04854102, -0.03, 0.01854102), (0.04854102, 0.03, -0.01854102), (0.04854102, 0.03, 0.01854102), (0.051039048, -0.031543866, 0), (0.051039048, 0, -0.031543866), (0.051039048, 0, 0.031543866), (0.051039048, 0.031543866, 0), (0.051760107, -0.015593515, -0.026033314), (0.051760107, -0.015593515, 0.026033314), (0.051760107, 0.015593515, -0.026033314), (0.051760107, 0.015593515, 0.026033314), (0.05706339, -0.015771933, -0.009747591), (0.05706339, -0.015771933, 0.009747591), (0.05706339, 0.015771933, -0.009747591), (0.05706339, 0.015771933, 0.009747591), (0.057716303, 0, -0.016395992), (0.057716303, 0, 0.016395992), (0.06, 0, 0), (-0.036720276, -0.022032166, -0.0073440555), (-0.036720276, -0.0073440555, -0.022032166), (-0.036720276, -0.0073440555, 0.022032166), (-0.036720276, 0.022032166, -0.0073440555), (-0.022032166, -0.036720276, -0.0073440555), (-0.022032166, -0.022032166, -0.022032166), (-0.022032166, -0.022032166, 0.022032166), (-0.022032166, -0.0073440555, -0.036720276), (-0.022032166, -0.0073440555, 0.0073440555), (-0.022032166, -0.0073440555, 0.036720276), (-0.022032166, 0.022032166, -0.022032166), (-0.022032166, 0.022032166, 0.022032166), (-0.022032166, 0.036720276, -0.0073440555), (-0.0073440555, -0.036720276, -0.022032166), (-0.0073440555, -0.036720276, 0.022032166), (-0.0073440555, -0.022032166, -0.036720276), (-0.0073440555, -0.022032166, 0.0073440555), (-0.0073440555, -0.022032166, 0.036720276), (-0.0073440555, -0.0073440555, -0.022032166), (-0.0073440555, -0.0073440555, 0.022032166), (-0.0073440555, 0.022032166, -0.036720276), (-0.0073440555, 0.022032166, 0.0073440555), (-0.0073440555, 0.022032166, 0.036720276), (-0.0073440555, 0.036720276, -0.022032166), (-0.0073440555, 0.036720276, 0.022032166), (0.0073440555, -0.022032166, -0.0073440555), (0.0073440555, 0.0073440555, -0.0073440555), (0.022032166, -0.036720276, -0.0073440555), (0.022032166, -0.022032166, -0.022032166), (0.022032166, -0.022032166, 0.022032166), (0.022032166, -0.0073440555, -0.036720276), (0.022032166, -0.0073440555, 0.0073440555), (0.022032166, -0.0073440555, 0.036720276), (0.022032166, 0.022032166, -0.022032166), (0.022032166, 0.022032166, 0.022032166), (0.022032166, 0.036720276, -0.0073440555), (0.036720276, -0.022032166, -0.0073440555), (0.036720276, -0.0073440555, -0.022032166), (0.036720276, -0.0073440555, 0.022032166), (0.036720276, 0.022032166, -0.0073440555)]
        int4[] tetVertexIndices = [(35, 24, 44, 166), (190, 188, 199, 192), (157, 158, 201, 161), (170, 188, 178, 180), (196, 194, 134, 122), (41, 172, 49, 29), (190, 135, 189, 127), (111, 107, 175, 89), (52, 70, 75, 176), (55, 66, 73, 176), (146, 196, 154, 134), (21, 169, 41, 29), (171, 168, 164, 170), (160, 154, 158, 200), (179, 168, 181, 178), (122, 104, 194, 125), (122, 125, 194, 142), (111, 175, 177, 89), (182, 185, 180, 195), (21, 163, 19, 169), (120, 125, 140, 194), (160, 200, 149, 154), (146, 196, 158, 154), (157, 201, 145, 153), (196, 134, 200, 154), (119, 124, 192, 139), (189, 136, 198, 128), (111, 97, 89, 177), (90, 108, 75, 176), (190, 131, 127, 111), (108, 191, 112, 128), (119, 97, 111, 190), (122, 196, 104, 100), (190, 175, 177, 111), (140, 200, 194, 142), (196, 186, 114, 110), (184, 83, 104, 100), (162, 3, 0, 163), (179, 90, 70, 176), (183, 186, 197, 88), (128, 132, 191, 112), (171, 37, 20, 40), (193, 196, 194, 200), (197, 186, 183, 196), (66, 94, 176, 75), (119, 190, 131, 139), (78, 97, 101, 192), (105, 73, 189, 93), (93, 74, 175, 107), (190, 107, 175, 111), (39, 57, 169, 61), (172, 183, 174, 165), (80, 78, 177, 57), (41, 182, 59, 63), (15, 23, 31, 167), (39, 36, 19, 169), (164, 168, 162, 170), (16, 168, 32, 162), (197, 106, 117, 95), (163, 1, 3, 0), (101, 192, 97, 119), (193, 181, 194, 196), (41, 169, 21, 36), (186, 87, 110, 96), (114, 196, 122, 100), (54, 173, 34, 46), (185, 109, 91, 86), (197, 110, 196, 130), (122, 104, 196, 194), (185, 71, 91, 182), (30, 164, 22, 10), (102, 194, 79, 81), (122, 194, 134, 142), (194, 179, 98, 79), (182, 63, 71, 84), (196, 184, 114, 186), (153, 145, 133, 195), (184, 104, 81, 194), (172, 185, 183, 180), (171, 164, 22, 30), (20, 168, 40, 28), (184, 83, 100, 85), (146, 201, 130, 138), (114, 92, 184, 100), (196, 134, 130, 114), (173, 50, 34, 30), (137, 201, 150, 138), (173, 72, 50, 184), (173, 165, 170, 164), (181, 194, 184, 81), (102, 104, 194, 81), (90, 112, 108, 176), (196, 134, 194, 200), (60, 184, 64, 83), (154, 200, 142, 134), (141, 192, 133, 121), (153, 199, 133, 141), (60, 181, 58, 171), (197, 201, 130, 196), (197, 110, 96, 186), (114, 92, 110, 186), (102, 98, 79, 194), (196, 184, 181, 194), (196, 130, 110, 114), (194, 200, 191, 193), (114, 186, 184, 92), (197, 186, 196, 110), (197, 118, 96, 110), (173, 184, 183, 186), (33, 17, 172, 25), (64, 184, 50, 72), (72, 173, 186, 184), (196, 122, 134, 114), (101, 124, 103, 192), (196, 100, 114, 184), (185, 91, 113, 182), (197, 137, 126, 138), (146, 201, 196, 130), (173, 42, 30, 171), (25, 165, 14, 17), (171, 181, 170, 173), (196, 184, 194, 104), (181, 81, 184, 60), (184, 104, 196, 100), (162, 166, 23, 167), (138, 118, 197, 130), (106, 118, 197, 126), (138, 130, 197, 201), (182, 49, 71, 63), (65, 166, 43, 55), (164, 8, 16, 28), (190, 198, 189, 135), (197, 130, 118, 110), (186, 110, 87, 92), (184, 104, 83, 81), (192, 195, 188, 199), (65, 175, 93, 74), (140, 191, 200, 132), (184, 100, 92, 85), (185, 71, 86, 91), (193, 189, 178, 187), (195, 133, 192, 121), (154, 158, 200, 196), (142, 194, 134, 200), (196, 193, 201, 200), (158, 201, 200, 196), (146, 134, 130, 196), (146, 150, 201, 138), (154, 200, 149, 142), (158, 196, 146, 201), (158, 150, 201, 146), (196, 197, 188, 183), (196, 188, 201, 193), (115, 107, 189, 127), (128, 144, 136, 198), (121, 99, 103, 195), (106, 96, 197, 118), (153, 145, 195, 201), (153, 199, 141, 148), (33, 53, 172, 49), (182, 71, 49, 172), (182, 99, 103, 82), (126, 197, 138, 118), (88, 197, 106, 96), (161, 158, 200, 160), (121, 124, 192, 103), (182, 103, 99, 195), (188, 196, 183, 181), (41, 63, 49, 182), (151, 143, 190, 131), (45, 185, 172, 53), (157, 201, 153, 159), (157, 145, 201, 150), (151, 199, 139, 190), (157, 201, 158, 150), (188, 181, 183, 170), (157, 159, 161, 201), (153, 148, 159, 199), (197, 95, 109, 185), (29, 163, 169, 172), (151, 139, 199, 148), (180, 185, 183, 188), (59, 180, 169, 57), (59, 169, 41, 36), (41, 182, 172, 169), (182, 82, 63, 84), (190, 135, 143, 198), (192, 103, 80, 182), (195, 113, 182, 185), (195, 129, 113, 109), (141, 148, 199, 139), (56, 88, 186, 183), (197, 95, 88, 106), (185, 86, 95, 109), (182, 80, 82, 103), (197, 117, 137, 129), (182, 71, 91, 84), (182, 91, 99, 84), (182, 99, 82, 84), (182, 59, 180, 169), (52, 168, 176, 44), (185, 113, 91, 109), (188, 197, 195, 185), (195, 103, 121, 192), (195, 99, 113, 121), (182, 113, 99, 91), (159, 199, 201, 153), (197, 117, 129, 109), (197, 117, 106, 126), (159, 161, 201, 199), (197, 126, 137, 117), (195, 113, 99, 182), (197, 109, 95, 117), (197, 109, 129, 195), (182, 195, 180, 192), (195, 137, 145, 129), (186, 197, 88, 96), (196, 197, 201, 188), (195, 109, 185, 197), (195, 129, 197, 137), (197, 138, 201, 137), (195, 113, 133, 121), (195, 129, 133, 113), (195, 103, 192, 182), (195, 109, 113, 185), (201, 150, 145, 137), (195, 145, 133, 129), (195, 137, 201, 145), (195, 133, 153, 199), (195, 188, 201, 197), (195, 137, 197, 201), (141, 192, 121, 124), (188, 201, 193, 199), (188, 201, 199, 195), (141, 192, 139, 199), (151, 199, 159, 148), (151, 198, 190, 143), (141, 133, 192, 199), (141, 124, 139, 192), (199, 201, 153, 195), (199, 133, 192, 195), (155, 159, 151, 199), (144, 152, 156, 200), (119, 190, 192, 97), (147, 135, 198, 143), (155, 198, 151, 143), (155, 143, 147, 198), (189, 198, 136, 135), (190, 139, 151, 131), (192, 199, 190, 139), (155, 198, 199, 151), (108, 191, 128, 116), (190, 175, 107, 189), (140, 194, 125, 142), (115, 189, 135, 127), (193, 161, 199, 201), (199, 159, 161, 155), (193, 161, 155, 199), (193, 199, 155, 198), (101, 192, 119, 124), (115, 189, 107, 93), (115, 123, 135, 189), (119, 111, 131, 190), (115, 189, 93, 105), (190, 189, 187, 175), (1, 5, 165, 9), (80, 78, 192, 177), (78, 97, 192, 177), (127, 189, 190, 107), (97, 190, 192, 177), (97, 177, 111, 190), (78, 177, 76, 97), (89, 177, 97, 76), (47, 167, 51, 69), (119, 190, 139, 192), (89, 74, 107, 175), (190, 127, 107, 111), (78, 80, 192, 101), (190, 143, 135, 127), (190, 131, 143, 127), (190, 198, 151, 199), (190, 198, 199, 193), (190, 193, 189, 198), (180, 190, 188, 187), (101, 80, 192, 103), (69, 175, 74, 89), (107, 175, 93, 189), (10, 2, 164, 13), (115, 189, 105, 123), (189, 198, 191, 128), (65, 166, 55, 73), (200, 160, 149, 152), (108, 176, 112, 191), (90, 179, 98, 112), (128, 191, 132, 144), (136, 147, 198, 144), (32, 166, 168, 44), (128, 198, 191, 144), (198, 156, 155, 200), (144, 147, 198, 156), (140, 191, 194, 200), (190, 187, 189, 193), (198, 155, 156, 147), (120, 194, 102, 125), (120, 191, 140, 132), (187, 178, 175, 189), (200, 156, 160, 152), (120, 191, 194, 140), (200, 158, 161, 201), (200, 161, 160, 156), (116, 191, 94, 108), (198, 189, 191, 193), (200, 193, 198, 191), (200, 155, 198, 193), (168, 176, 70, 52), (200, 155, 193, 161), (200, 161, 156, 155), (200, 201, 161, 193), (144, 200, 156, 198), (191, 176, 178, 189), (136, 147, 135, 198), (178, 193, 181, 191), (194, 81, 179, 79), (120, 98, 194, 191), (98, 191, 179, 194), (120, 132, 112, 191), (120, 191, 112, 98), (132, 200, 152, 144), (191, 198, 200, 144), (132, 191, 200, 144), (112, 176, 179, 191), (77, 179, 98, 90), (75, 94, 176, 108), (189, 94, 73, 105), (189, 135, 136, 123), (178, 188, 193, 187), (79, 81, 179, 58), (140, 149, 152, 200), (98, 179, 191, 112), (140, 149, 200, 142), (102, 194, 104, 125), (48, 62, 168, 40), (32, 48, 168, 28), (140, 200, 152, 132), (120, 194, 98, 102), (90, 176, 179, 112), (77, 98, 179, 79), (11, 162, 23, 15), (26, 25, 174, 165), (16, 28, 32, 168), (116, 123, 189, 136), (191, 176, 94, 108), (116, 191, 128, 189), (116, 128, 136, 189), (116, 105, 189, 123), (116, 105, 94, 189), (116, 191, 189, 94), (191, 94, 176, 189), (21, 29, 9, 163), (66, 94, 73, 176), (73, 178, 189, 175), (176, 94, 73, 189), (191, 194, 193, 181), (55, 44, 66, 176), (15, 7, 3, 162), (13, 22, 20, 164), (13, 8, 2, 164), (164, 8, 4, 16), (164, 162, 168, 16), (32, 168, 52, 44), (176, 73, 55, 166), (168, 70, 179, 62), (70, 75, 176, 90), (168, 176, 44, 166), (32, 52, 168, 48), (168, 176, 179, 70), (178, 191, 181, 179), (52, 66, 44, 176), (181, 196, 193, 188), (4, 2, 8, 164), (4, 0, 2, 164), (4, 162, 0, 164), (176, 44, 166, 55), (178, 191, 189, 193), (65, 166, 73, 175), (48, 70, 52, 168), (181, 194, 179, 191), (164, 28, 16, 168), (167, 19, 27, 7), (176, 178, 166, 168), (180, 188, 183, 170), (178, 180, 187, 175), (179, 178, 176, 168), (32, 44, 24, 166), (181, 179, 194, 81), (179, 77, 79, 62), (52, 75, 66, 176), (176, 191, 178, 179), (179, 181, 58, 81), (4, 16, 162, 164), (179, 79, 58, 62), (179, 77, 70, 90), (179, 70, 77, 62), (28, 168, 40, 48), (20, 28, 164, 168), (171, 20, 168, 40), (16, 32, 24, 162), (171, 168, 20, 164), (162, 166, 168, 32), (162, 24, 166, 32), (167, 175, 69, 177), (164, 20, 8, 28), (26, 25, 38, 174), (4, 3, 0, 162), (13, 20, 8, 164), (171, 184, 181, 173), (171, 184, 60, 181), (173, 30, 42, 50), (171, 170, 181, 168), (171, 168, 181, 179), (171, 40, 168, 62), (171, 62, 179, 58), (171, 181, 58, 179), (171, 62, 58, 40), (70, 62, 168, 48), (171, 179, 62, 168), (171, 37, 40, 58), (170, 172, 163, 165), (93, 189, 175, 73), (26, 174, 38, 46), (46, 38, 56, 174), (65, 73, 93, 175), (162, 0, 170, 163), (65, 166, 175, 43), (23, 166, 162, 24), (163, 19, 169, 167), (167, 39, 61, 47), (176, 73, 178, 189), (176, 73, 166, 178), (23, 166, 24, 35), (73, 166, 178, 175), (162, 0, 164, 170), (69, 167, 61, 47), (15, 167, 162, 23), (59, 82, 63, 182), (10, 164, 2, 6), (167, 61, 39, 169), (180, 169, 167, 163), (180, 192, 177, 80), (180, 57, 80, 177), (11, 162, 3, 4), (163, 180, 170, 167), (178, 193, 188, 181), (59, 169, 182, 41), (162, 170, 178, 167), (59, 82, 182, 80), (170, 162, 163, 167), (21, 12, 19, 163), (69, 175, 89, 177), (177, 69, 167, 61), (39, 19, 167, 169), (162, 178, 166, 167), (35, 43, 166, 55), (180, 177, 192, 190), (39, 169, 57, 36), (35, 44, 55, 166), (69, 76, 177, 89), (69, 74, 175, 51), (51, 175, 167, 43), (43, 166, 167, 23), (51, 43, 167, 31), (51, 175, 65, 74), (51, 175, 43, 65), (177, 78, 76, 61), (177, 61, 76, 69), (177, 78, 61, 57), (177, 169, 57, 61), (180, 192, 188, 190), (180, 190, 175, 177), (180, 187, 188, 178), (167, 166, 175, 178), (180, 57, 177, 169), (23, 43, 31, 167), (162, 168, 178, 170), (11, 3, 162, 15), (7, 27, 167, 15), (23, 166, 35, 43), (167, 177, 180, 175), (190, 193, 199, 188), (188, 193, 187, 190), (180, 190, 187, 175), (167, 170, 178, 180), (170, 181, 178, 188), (170, 178, 181, 168), (167, 180, 178, 175), (162, 166, 178, 168), (167, 177, 169, 180), (167, 166, 43, 175), (167, 51, 31, 47), (167, 175, 51, 69), (167, 31, 27, 47), (167, 27, 19, 39), (167, 39, 47, 27), (167, 61, 169, 177), (163, 3, 7, 162), (163, 3, 1, 7), (12, 19, 163, 7), (12, 1, 7, 163), (15, 31, 27, 167), (167, 7, 163, 19), (167, 7, 162, 163), (15, 162, 167, 7), (11, 16, 162, 4), (11, 24, 162, 16), (11, 162, 24, 23), (171, 22, 37, 42), (165, 6, 18, 14), (169, 182, 172, 180), (29, 17, 9, 172), (25, 174, 165, 172), (17, 14, 5, 165), (172, 185, 174, 183), (17, 9, 165, 5), (163, 165, 172, 9), (165, 0, 6, 5), (25, 165, 17, 172), (163, 0, 165, 1), (41, 29, 169, 172), (171, 22, 20, 37), (172, 180, 183, 170), (174, 45, 185, 172), (163, 9, 172, 29), (41, 182, 49, 172), (182, 59, 80, 180), (182, 80, 192, 180), (180, 188, 195, 185), (33, 25, 172, 45), (21, 12, 163, 9), (188, 197, 185, 183), (180, 195, 188, 192), (9, 17, 165, 172), (29, 169, 163, 21), (29, 172, 49, 33), (29, 172, 33, 17), (53, 86, 185, 71), (53, 49, 71, 172), (172, 185, 71, 53), (172, 180, 182, 185), (172, 71, 185, 182), (163, 9, 1, 165), (1, 5, 0, 165), (163, 12, 1, 9), (172, 163, 169, 180), (21, 36, 169, 19), (172, 163, 180, 170), (59, 57, 80, 180), (59, 36, 57, 169), (45, 174, 56, 38), (54, 87, 186, 68), (45, 25, 174, 38), (56, 183, 174, 67), (56, 183, 67, 88), (45, 174, 25, 172), (67, 185, 53, 86), (67, 174, 185, 183), (67, 95, 183, 185), (183, 95, 197, 185), (67, 86, 95, 185), (183, 95, 88, 197), (67, 95, 88, 183), (45, 53, 67, 185), (45, 174, 67, 56), (45, 53, 172, 33), (45, 174, 185, 67), (183, 174, 46, 56), (26, 174, 46, 34), (68, 56, 186, 46), (26, 18, 165, 34), (165, 14, 5, 6), (165, 0, 170, 164), (183, 181, 173, 170), (171, 30, 22, 42), (54, 173, 186, 72), (60, 81, 58, 181), (170, 163, 0, 165), (165, 6, 0, 164), (0, 2, 164, 6), (72, 87, 92, 186), (171, 164, 20, 22), (10, 22, 13, 164), (174, 46, 34, 173), (68, 88, 186, 56), (170, 172, 165, 183), (173, 50, 42, 184), (173, 42, 171, 184), (173, 30, 164, 171), (183, 186, 184, 196), (171, 170, 164, 173), (18, 173, 30, 10), (173, 30, 10, 164), (173, 6, 164, 10), (173, 10, 18, 6), (165, 6, 173, 18), (72, 186, 92, 184), (72, 85, 184, 92), (174, 165, 173, 34), (183, 184, 181, 196), (26, 34, 165, 174), (183, 173, 181, 184), (173, 30, 34, 18), (173, 6, 165, 164), (173, 18, 34, 165), (46, 186, 183, 56), (173, 165, 174, 183), (183, 186, 46, 173), (183, 170, 173, 165), (68, 88, 96, 186), (68, 96, 87, 186), (54, 186, 46, 68), (26, 18, 14, 165), (26, 14, 25, 165), (54, 173, 46, 186), (54, 186, 87, 72), (54, 50, 173, 72), (46, 174, 183, 173), (54, 50, 34, 173), (64, 85, 83, 184), (64, 42, 50, 184), (64, 85, 184, 72), (64, 60, 42, 184), (60, 171, 42, 184), (60, 83, 81, 184), (60, 42, 171, 37), (60, 37, 171, 58)]
    }
}
